<svg width="13" height="12" viewBox="0 0 13 12" fill="none" xmlns="http://www.w3.org/2000/svg">
    <path d="M5.41665 9C6.37809 8.99982 7.31183 8.70272 8.06919 8.156L10.4504 10.354L11.2163 9.647L8.8351 7.449C9.42769 6.74983 9.74975 5.88772 9.74998 5C9.74998 2.7945 7.80594 1 5.41665 1C3.02735 1 1.08331 2.7945 1.08331 5C1.08331 7.2055 3.02735 9 5.41665 9ZM5.41665 2C7.20902 2 8.66665 3.3455 8.66665 5C8.66665 6.6545 7.20902 8 5.41665 8C3.62427 8 2.16665 6.6545 2.16665 5C2.16665 3.3455 3.62427 2 5.41665 2Z" fill="black" fill-opacity="0.22"/>
</svg>
